# xmcd
#
# Track frame offsets:
#	150
#	22033
#	38179
#	55190
#	75483
#	98399
#	112083
#	135279
#	154770
#	174426
#	193916
#	209993
#	229242
#	249254
#	270960
#
# Disc length: 3900 seconds
#
# Revision: 4
# Processed by: cddbd v1.5.2PL0 Copyright (c) Steve Scherf et al.
# Submitted via: EasyCDDAExtractor 10.0.5.1
#
DISCID=c30f3a0f
DTITLE=陳綺貞 - 精選 Cheer
DYEAR=2005
DGENRE=General Pop
TTITLE0=九份的咖啡店
TTITLE1=雨天的尾巴 (滬尾小情歌)
TTITLE2=讓我想一想
TTITLE3=還是會寂寞
TTITLE4=躲在你的衣櫃-Guitar
TTITLE5=吉他手
TTITLE6=告訴我
TTITLE7=會不會
TTITLE8=太聰明
TTITLE9=小步舞曲
TTITLE10=孩子
TTITLE11=慢歌
TTITLE12=嫉妒
TTITLE13=溫室花朵
TTITLE14=就算全世界與我為敵
EXTD=YEAR: 2005
EXTT0=
EXTT1=
EXTT2=
EXTT3=
EXTT4=
EXTT5=
EXTT6=
EXTT7=
EXTT8=
EXTT9=
EXTT10=
EXTT11=
EXTT12=
EXTT13=
EXTT14=
PLAYORDER=
